# xmcd CD database file
# Copyright (C) 1993-1998 Ti Kan
# 
# Track frame offsets:
#     150
#     16645
#     32602
#     45432
#     60267
#     81657
#     96530
#     116320
#     137422
#     160222
#     177770
#     193950
#     211040
#     226822
#     245015
#     280477
#     299942
# 
# Disc length: 4297 seconds
# 
# Revision: 1
# Processed by: cddbd v1.4b41PL1 Copyright (c) Steve Scherf et al.
# Submitted via: DiscPlay 4.0.4
# 
DISCID=ed10c711
DTITLE=Various Artist - Midnight Sax
DYEAR=1900
DGENRE=
TTITLE0=Love Is All Around
TTITLE1=A Whiter Shade Of Pale
TTITLE2=The Long And Winding Road
TTITLE3=Woman
TTITLE4=Lean On Me
TTITLE5=How Deep Is Your Love?
TTITLE6=Just The Way You Are
TTITLE7=When I Fall In Love
TTITLE8=Said I Loved You... But I Lied
TTITLE9=Candle In The Wind
TTITLE10=Will You Be There?
TTITLE11=You've Lost That Loving Feeling
TTITLE12=Blue Eyes
TTITLE13=Dreamlover
TTITLE14=We've Only Just Begun - One Sweet Day
TTITLE15=I Can Love You Like That
TTITLE16=Can I Touch You... There?
EXTD=
EXTT0=
EXTT1=
EXTT2=
EXTT3=
EXTT4=
EXTT5=
EXTT6=
EXTT7=
EXTT8=
EXTT9=
EXTT10=
EXTT11=
EXTT12=
EXTT13=
EXTT14=
EXTT15=
EXTT16=
PLAYORDER=
